<svg version="1.1" xmlns="http://www.w3.org/2000/svg" xmlns:xlink="http://www.w3.org/1999/xlink" x="0px" y="0px" viewBox="0 0 256 256" enable-background="new 0 0 256 256" xml:space="preserve">
  <g>
    <g>
      <path fill="#fef3c6" stroke="#fef3c6" stroke-width="0.01" d="M128,10C62.8,10,10,62.8,10,128c0,65.2,52.8,118,118,118c65.2,0,118-52.8,118-118C246,62.8,193.2,10,128,10L128,10z M59.2,213.3c9.4-25.9,33.9-45.2,60.2-48.5v-10c-17.6-3.4-31.4-19.3-31.4-38.5c0-21.7,17.9-39.3,39.7-39.3c21.7,0,38.6,17.6,38.6,39.3c0,18.2-12.2,33.3-29.9,37.8v10.9c26.3,3.3,51.3,21.6,61.1,46.5c-19,16.1-43.5,25.8-70.3,25.8C101.4,237.3,77.9,228.3,59.2,213.3L59.2,213.3z M205.3,205.2c-10-22.8-29.8-40.2-54.2-46.8c14.9-8.2,24.9-24,24.9-42.1c0-26.6-21.5-48.1-48.1-48.1c-26.6,0-48.1,21.5-48.1,48.1c0,18.6,10.5,34.7,26,42.6c-24.2,7.2-43.7,25.1-53.1,48.2c-21-19.9-34.1-47.9-34.1-79.1C18.7,67.7,67.7,18.7,128,18.7c60.3,0,109.3,48.9,109.3,109.3C237.3,158.2,225,185.4,205.3,205.2L205.3,205.2L205.3,205.2z"/>
    </g>
  </g>
</svg>
